# xmcd CD database file
#
# Track frame offsets:
#	150
#	21902
#	39072
#
# Disc length: 821 seconds
#
# Revision: 0
# Processed by: cddbd v1.5PL3 Copyright (c) Steve Scherf et al.
# Submitted via: CDex 1.50beta10
#
DISCID=16033303
DTITLE=春畑道哉 - Ｊ’Ｓ　ＴＨＥＭＥ
DYEAR=1992
DGENRE=J-POP
TTITLE0=Ｊ’Ｓ　ＴＨＥＭＥ
TTITLE1=ＢＯＲＮ　ＴＯ　ＷＩＮ
TTITLE2=Ｊ’Ｓ　ＢＡＬＬＡＤ
EXTD=YEAR: 1992
EXTT0=
EXTT1=
EXTT2=
PLAYORDER=
